<mxfile host="65bd71144e">
    <diagram id="_IBKvAG1iA8Q4fX3GdbU" name="MCD">
        <mxGraphModel dx="1284" dy="1190" grid="1" gridSize="10" guides="1" tooltips="1" connect="1" arrows="1" fold="1" page="0" pageScale="1" pageWidth="827" pageHeight="1169" math="0" shadow="0">
            <root>
                <mxCell id="0"/>
                <mxCell id="1" parent="0"/>
                <mxCell id="62FMJittDz8vvhvzdnaO-6" value="1.n" style="edgeStyle=none;html=1;entryX=0.582;entryY=1.133;entryDx=0;entryDy=0;entryPerimeter=0;" edge="1" parent="1" source="Rs1LrhEvOXvujVezOXX3-1" target="1CAXAxcUrHn8NrNz1cq5-6">
                    <mxGeometry x="-0.2936" relative="1" as="geometry">
                        <mxPoint x="412.99" y="-76.00999999999999" as="targetPoint"/>
                        <Array as="points">
                            <mxPoint x="400" y="60"/>
                        </Array>
                        <mxPoint as="offset"/>
                    </mxGeometry>
                </mxCell>
                <mxCell id="62FMJittDz8vvhvzdnaO-12" value="0.n" style="edgeLabel;html=1;align=center;verticalAlign=middle;resizable=0;points=[];" vertex="1" connectable="0" parent="62FMJittDz8vvhvzdnaO-6">
                    <mxGeometry x="0.7574" y="-2" relative="1" as="geometry">
                        <mxPoint as="offset"/>
                    </mxGeometry>
                </mxCell>
                <mxCell id="Rs1LrhEvOXvujVezOXX3-1" value="recette" style="swimlane;fontStyle=0;childLayout=stackLayout;horizontal=1;startSize=30;horizontalStack=0;resizeParent=1;resizeParentMax=0;resizeLast=0;collapsible=1;marginBottom=0;" vertex="1" parent="1">
                    <mxGeometry x="290" y="150" width="170" height="120" as="geometry"/>
                </mxCell>
                <mxCell id="Rs1LrhEvOXvujVezOXX3-2" value="nom" style="text;strokeColor=none;fillColor=none;align=left;verticalAlign=middle;spacingLeft=4;spacingRight=4;overflow=hidden;points=[[0,0.5],[1,0.5]];portConstraint=eastwest;rotatable=0;" vertex="1" parent="Rs1LrhEvOXvujVezOXX3-1">
                    <mxGeometry y="30" width="170" height="30" as="geometry"/>
                </mxCell>
                <mxCell id="Rs1LrhEvOXvujVezOXX3-3" value="description" style="text;strokeColor=none;fillColor=none;align=left;verticalAlign=middle;spacingLeft=4;spacingRight=4;overflow=hidden;points=[[0,0.5],[1,0.5]];portConstraint=eastwest;rotatable=0;" vertex="1" parent="Rs1LrhEvOXvujVezOXX3-1">
                    <mxGeometry y="60" width="170" height="30" as="geometry"/>
                </mxCell>
                <mxCell id="MCFXW-wFztPbIcugo4Tw-1" value="photo" style="text;strokeColor=none;fillColor=none;align=left;verticalAlign=middle;spacingLeft=4;spacingRight=4;overflow=hidden;points=[[0,0.5],[1,0.5]];portConstraint=eastwest;rotatable=0;" vertex="1" parent="Rs1LrhEvOXvujVezOXX3-1">
                    <mxGeometry y="90" width="170" height="30" as="geometry"/>
                </mxCell>
                <mxCell id="1CAXAxcUrHn8NrNz1cq5-5" value="ingredients" style="swimlane;fontStyle=0;childLayout=stackLayout;horizontal=1;startSize=30;horizontalStack=0;resizeParent=1;resizeParentMax=0;resizeLast=0;collapsible=1;marginBottom=0;" vertex="1" parent="1">
                    <mxGeometry x="320" y="-170" width="170" height="60" as="geometry"/>
                </mxCell>
                <mxCell id="1CAXAxcUrHn8NrNz1cq5-6" value="nom" style="text;strokeColor=none;fillColor=none;align=left;verticalAlign=middle;spacingLeft=4;spacingRight=4;overflow=hidden;points=[[0,0.5],[1,0.5]];portConstraint=eastwest;rotatable=0;" vertex="1" parent="1CAXAxcUrHn8NrNz1cq5-5">
                    <mxGeometry y="30" width="170" height="30" as="geometry"/>
                </mxCell>
                <mxCell id="62FMJittDz8vvhvzdnaO-16" value="1.1" style="edgeStyle=none;html=1;entryX=0.5;entryY=1;entryDx=0;entryDy=0;exitX=0.918;exitY=0;exitDx=0;exitDy=0;exitPerimeter=0;" edge="1" parent="1" source="Rs1LrhEvOXvujVezOXX3-1" target="62FMJittDz8vvhvzdnaO-15">
                    <mxGeometry relative="1" as="geometry"/>
                </mxCell>
                <mxCell id="1CAXAxcUrHn8NrNz1cq5-9" value="utilisateur" style="swimlane;fontStyle=0;childLayout=stackLayout;horizontal=1;startSize=30;horizontalStack=0;resizeParent=1;resizeParentMax=0;resizeLast=0;collapsible=1;marginBottom=0;" vertex="1" parent="1">
                    <mxGeometry x="760" y="120" width="180" height="180" as="geometry"/>
                </mxCell>
                <mxCell id="1CAXAxcUrHn8NrNz1cq5-10" value="nom" style="text;strokeColor=none;fillColor=none;align=left;verticalAlign=middle;spacingLeft=4;spacingRight=4;overflow=hidden;points=[[0,0.5],[1,0.5]];portConstraint=eastwest;rotatable=0;" vertex="1" parent="1CAXAxcUrHn8NrNz1cq5-9">
                    <mxGeometry y="30" width="180" height="30" as="geometry"/>
                </mxCell>
                <mxCell id="1CAXAxcUrHn8NrNz1cq5-11" value="prenom" style="text;strokeColor=none;fillColor=none;align=left;verticalAlign=middle;spacingLeft=4;spacingRight=4;overflow=hidden;points=[[0,0.5],[1,0.5]];portConstraint=eastwest;rotatable=0;" vertex="1" parent="1CAXAxcUrHn8NrNz1cq5-9">
                    <mxGeometry y="60" width="180" height="30" as="geometry"/>
                </mxCell>
                <mxCell id="1CAXAxcUrHn8NrNz1cq5-13" value="email" style="text;strokeColor=none;fillColor=none;align=left;verticalAlign=middle;spacingLeft=4;spacingRight=4;overflow=hidden;points=[[0,0.5],[1,0.5]];portConstraint=eastwest;rotatable=0;" vertex="1" parent="1CAXAxcUrHn8NrNz1cq5-9">
                    <mxGeometry y="90" width="180" height="30" as="geometry"/>
                </mxCell>
                <mxCell id="1CAXAxcUrHn8NrNz1cq5-14" value="mot de passe" style="text;strokeColor=none;fillColor=none;align=left;verticalAlign=middle;spacingLeft=4;spacingRight=4;overflow=hidden;points=[[0,0.5],[1,0.5]];portConstraint=eastwest;rotatable=0;" vertex="1" parent="1CAXAxcUrHn8NrNz1cq5-9">
                    <mxGeometry y="120" width="180" height="30" as="geometry"/>
                </mxCell>
                <mxCell id="1CAXAxcUrHn8NrNz1cq5-12" value="date de creation" style="text;strokeColor=none;fillColor=none;align=left;verticalAlign=middle;spacingLeft=4;spacingRight=4;overflow=hidden;points=[[0,0.5],[1,0.5]];portConstraint=eastwest;rotatable=0;" vertex="1" parent="1CAXAxcUrHn8NrNz1cq5-9">
                    <mxGeometry y="150" width="180" height="30" as="geometry"/>
                </mxCell>
                <mxCell id="62FMJittDz8vvhvzdnaO-5" value="1.1" style="edgeStyle=none;html=1;entryX=1;entryY=0.073;entryDx=0;entryDy=0;entryPerimeter=0;exitX=0;exitY=0.144;exitDx=0;exitDy=0;exitPerimeter=0;startArrow=none;" edge="1" parent="1" source="62FMJittDz8vvhvzdnaO-7" target="Rs1LrhEvOXvujVezOXX3-1">
                    <mxGeometry relative="1" as="geometry"/>
                </mxCell>
                <mxCell id="62FMJittDz8vvhvzdnaO-7" value="créer" style="ellipse;whiteSpace=wrap;html=1;" vertex="1" parent="1">
                    <mxGeometry x="570" y="190" width="90" height="40" as="geometry"/>
                </mxCell>
                <mxCell id="62FMJittDz8vvhvzdnaO-8" value="n.0" style="edgeStyle=none;html=1;entryX=1;entryY=0.073;entryDx=0;entryDy=0;entryPerimeter=0;exitX=0;exitY=0.144;exitDx=0;exitDy=0;exitPerimeter=0;endArrow=none;" edge="1" parent="1" source="1CAXAxcUrHn8NrNz1cq5-9" target="62FMJittDz8vvhvzdnaO-7">
                    <mxGeometry relative="1" as="geometry">
                        <mxPoint x="630" y="60.91999999999996" as="sourcePoint"/>
                        <mxPoint x="500" y="60.950000000000045" as="targetPoint"/>
                        <Array as="points">
                            <mxPoint x="710" y="170"/>
                        </Array>
                    </mxGeometry>
                </mxCell>
                <mxCell id="62FMJittDz8vvhvzdnaO-17" value="0.n" style="edgeStyle=none;html=1;entryX=0.6;entryY=1.133;entryDx=0;entryDy=0;entryPerimeter=0;" edge="1" parent="1" source="62FMJittDz8vvhvzdnaO-15" target="62FMJittDz8vvhvzdnaO-21">
                    <mxGeometry relative="1" as="geometry">
                        <mxPoint x="845" y="-70" as="targetPoint"/>
                    </mxGeometry>
                </mxCell>
                <mxCell id="62FMJittDz8vvhvzdnaO-15" value="lier" style="ellipse;whiteSpace=wrap;html=1;" vertex="1" parent="1">
                    <mxGeometry x="650" y="-20" width="70" height="40" as="geometry"/>
                </mxCell>
                <mxCell id="62FMJittDz8vvhvzdnaO-20" value="categories" style="swimlane;fontStyle=0;childLayout=stackLayout;horizontal=1;startSize=30;horizontalStack=0;resizeParent=1;resizeParentMax=0;resizeLast=0;collapsible=1;marginBottom=0;" vertex="1" parent="1">
                    <mxGeometry x="760" y="-190" width="140" height="60" as="geometry"/>
                </mxCell>
                <mxCell id="62FMJittDz8vvhvzdnaO-21" value="nom" style="text;strokeColor=none;fillColor=none;align=left;verticalAlign=middle;spacingLeft=4;spacingRight=4;overflow=hidden;points=[[0,0.5],[1,0.5]];portConstraint=eastwest;rotatable=0;" vertex="1" parent="62FMJittDz8vvhvzdnaO-20">
                    <mxGeometry y="30" width="140" height="30" as="geometry"/>
                </mxCell>
                <mxCell id="62FMJittDz8vvhvzdnaO-25" value="contenir" style="swimlane;fontStyle=0;childLayout=stackLayout;horizontal=1;startSize=30;horizontalStack=0;resizeParent=1;resizeParentMax=0;resizeLast=0;collapsible=1;marginBottom=0;" vertex="1" parent="1">
                    <mxGeometry x="340" y="-40" width="120" height="60" as="geometry"/>
                </mxCell>
                <mxCell id="62FMJittDz8vvhvzdnaO-26" value="Quantité" style="text;strokeColor=none;fillColor=none;align=left;verticalAlign=middle;spacingLeft=4;spacingRight=4;overflow=hidden;points=[[0,0.5],[1,0.5]];portConstraint=eastwest;rotatable=0;" vertex="1" parent="62FMJittDz8vvhvzdnaO-25">
                    <mxGeometry y="30" width="120" height="30" as="geometry"/>
                </mxCell>
            </root>
        </mxGraphModel>
    </diagram>
    <diagram id="qSaUj935az9j043oc2Hq" name="MLD">
        <mxGraphModel dx="677" dy="572" grid="1" gridSize="10" guides="1" tooltips="1" connect="1" arrows="1" fold="1" page="1" pageScale="1" pageWidth="827" pageHeight="1169" math="0" shadow="0">
            <root>
                <mxCell id="R9n2ZZHcBTKXqGS1CNbB-0"/>
                <mxCell id="R9n2ZZHcBTKXqGS1CNbB-1" parent="R9n2ZZHcBTKXqGS1CNbB-0"/>
                <mxCell id="Vrqj1Y5U4wgHQlJJCcb2-2" value="recette" style="swimlane;fontStyle=0;childLayout=stackLayout;horizontal=1;startSize=30;horizontalStack=0;resizeParent=1;resizeParentMax=0;resizeLast=0;collapsible=1;marginBottom=0;" vertex="1" parent="R9n2ZZHcBTKXqGS1CNbB-1">
                    <mxGeometry x="350" y="220" width="170" height="210" as="geometry"/>
                </mxCell>
                <mxCell id="Vrqj1Y5U4wgHQlJJCcb2-3" value="id INT (pk)" style="text;strokeColor=#001DBC;fillColor=#0050ef;align=left;verticalAlign=middle;spacingLeft=4;spacingRight=4;overflow=hidden;points=[[0,0.5],[1,0.5]];portConstraint=eastwest;rotatable=0;fontColor=#ffffff;" vertex="1" parent="Vrqj1Y5U4wgHQlJJCcb2-2">
                    <mxGeometry y="30" width="170" height="30" as="geometry"/>
                </mxCell>
                <mxCell id="Vrqj1Y5U4wgHQlJJCcb2-27" value="utilisateur_id (fk)" style="text;strokeColor=#A50040;fillColor=#d80073;align=left;verticalAlign=middle;spacingLeft=4;spacingRight=4;overflow=hidden;points=[[0,0.5],[1,0.5]];portConstraint=eastwest;rotatable=0;fontColor=#ffffff;" vertex="1" parent="Vrqj1Y5U4wgHQlJJCcb2-2">
                    <mxGeometry y="60" width="170" height="30" as="geometry"/>
                </mxCell>
                <mxCell id="Vrqj1Y5U4wgHQlJJCcb2-26" value="categorie_id INT (fk)" style="text;strokeColor=#A50040;fillColor=#d80073;align=left;verticalAlign=middle;spacingLeft=4;spacingRight=4;overflow=hidden;points=[[0,0.5],[1,0.5]];portConstraint=eastwest;rotatable=0;fontColor=#ffffff;" vertex="1" parent="Vrqj1Y5U4wgHQlJJCcb2-2">
                    <mxGeometry y="90" width="170" height="30" as="geometry"/>
                </mxCell>
                <mxCell id="Vrqj1Y5U4wgHQlJJCcb2-4" value="nom VARCHAR (120)" style="text;strokeColor=none;fillColor=none;align=left;verticalAlign=middle;spacingLeft=4;spacingRight=4;overflow=hidden;points=[[0,0.5],[1,0.5]];portConstraint=eastwest;rotatable=0;" vertex="1" parent="Vrqj1Y5U4wgHQlJJCcb2-2">
                    <mxGeometry y="120" width="170" height="30" as="geometry"/>
                </mxCell>
                <mxCell id="Vrqj1Y5U4wgHQlJJCcb2-28" value="description TEXT" style="text;strokeColor=none;fillColor=none;align=left;verticalAlign=middle;spacingLeft=4;spacingRight=4;overflow=hidden;points=[[0,0.5],[1,0.5]];portConstraint=eastwest;rotatable=0;" vertex="1" parent="Vrqj1Y5U4wgHQlJJCcb2-2">
                    <mxGeometry y="150" width="170" height="30" as="geometry"/>
                </mxCell>
                <mxCell id="Vrqj1Y5U4wgHQlJJCcb2-5" value="image VARCHAR (255)" style="text;strokeColor=none;fillColor=none;align=left;verticalAlign=middle;spacingLeft=4;spacingRight=4;overflow=hidden;points=[[0,0.5],[1,0.5]];portConstraint=eastwest;rotatable=0;" vertex="1" parent="Vrqj1Y5U4wgHQlJJCcb2-2">
                    <mxGeometry y="180" width="170" height="30" as="geometry"/>
                </mxCell>
                <mxCell id="Vrqj1Y5U4wgHQlJJCcb2-6" value="ingredients" style="swimlane;fontStyle=0;childLayout=stackLayout;horizontal=1;startSize=30;horizontalStack=0;resizeParent=1;resizeParentMax=0;resizeLast=0;collapsible=1;marginBottom=0;" vertex="1" parent="R9n2ZZHcBTKXqGS1CNbB-1">
                    <mxGeometry x="570" y="650" width="170" height="90" as="geometry"/>
                </mxCell>
                <mxCell id="Vrqj1Y5U4wgHQlJJCcb2-7" value="id INT (pk)" style="text;strokeColor=#001DBC;fillColor=#0050ef;align=left;verticalAlign=middle;spacingLeft=4;spacingRight=4;overflow=hidden;points=[[0,0.5],[1,0.5]];portConstraint=eastwest;rotatable=0;fontColor=#ffffff;" vertex="1" parent="Vrqj1Y5U4wgHQlJJCcb2-6">
                    <mxGeometry y="30" width="170" height="30" as="geometry"/>
                </mxCell>
                <mxCell id="A8fHzLYMiSxlpu7F5eBw-3" value="ingredient VARCHAR (50)" style="text;strokeColor=none;fillColor=none;align=left;verticalAlign=middle;spacingLeft=4;spacingRight=4;overflow=hidden;points=[[0,0.5],[1,0.5]];portConstraint=eastwest;rotatable=0;" vertex="1" parent="Vrqj1Y5U4wgHQlJJCcb2-6">
                    <mxGeometry y="60" width="170" height="30" as="geometry"/>
                </mxCell>
                <mxCell id="Vrqj1Y5U4wgHQlJJCcb2-9" value="utilisateur" style="swimlane;fontStyle=0;childLayout=stackLayout;horizontal=1;startSize=30;horizontalStack=0;resizeParent=1;resizeParentMax=0;resizeLast=0;collapsible=1;marginBottom=0;" vertex="1" parent="R9n2ZZHcBTKXqGS1CNbB-1">
                    <mxGeometry x="40" y="170" width="180" height="210" as="geometry"/>
                </mxCell>
                <mxCell id="Vrqj1Y5U4wgHQlJJCcb2-25" value="id INT (pk)" style="text;strokeColor=#001DBC;fillColor=#0050ef;align=left;verticalAlign=middle;spacingLeft=4;spacingRight=4;overflow=hidden;points=[[0,0.5],[1,0.5]];portConstraint=eastwest;rotatable=0;fontColor=#ffffff;" vertex="1" parent="Vrqj1Y5U4wgHQlJJCcb2-9">
                    <mxGeometry y="30" width="180" height="30" as="geometry"/>
                </mxCell>
                <mxCell id="Vrqj1Y5U4wgHQlJJCcb2-10" value="nom VARCHAR(50)" style="text;strokeColor=none;fillColor=none;align=left;verticalAlign=middle;spacingLeft=4;spacingRight=4;overflow=hidden;points=[[0,0.5],[1,0.5]];portConstraint=eastwest;rotatable=0;" vertex="1" parent="Vrqj1Y5U4wgHQlJJCcb2-9">
                    <mxGeometry y="60" width="180" height="30" as="geometry"/>
                </mxCell>
                <mxCell id="Vrqj1Y5U4wgHQlJJCcb2-11" value="prenom VARCHAR(30)" style="text;strokeColor=none;fillColor=none;align=left;verticalAlign=middle;spacingLeft=4;spacingRight=4;overflow=hidden;points=[[0,0.5],[1,0.5]];portConstraint=eastwest;rotatable=0;" vertex="1" parent="Vrqj1Y5U4wgHQlJJCcb2-9">
                    <mxGeometry y="90" width="180" height="30" as="geometry"/>
                </mxCell>
                <mxCell id="Vrqj1Y5U4wgHQlJJCcb2-12" value="email VARCHAR(120)" style="text;strokeColor=none;fillColor=none;align=left;verticalAlign=middle;spacingLeft=4;spacingRight=4;overflow=hidden;points=[[0,0.5],[1,0.5]];portConstraint=eastwest;rotatable=0;" vertex="1" parent="Vrqj1Y5U4wgHQlJJCcb2-9">
                    <mxGeometry y="120" width="180" height="30" as="geometry"/>
                </mxCell>
                <mxCell id="Vrqj1Y5U4wgHQlJJCcb2-13" value="mot_de_passe VARCHAR(32)" style="text;strokeColor=none;fillColor=none;align=left;verticalAlign=middle;spacingLeft=4;spacingRight=4;overflow=hidden;points=[[0,0.5],[1,0.5]];portConstraint=eastwest;rotatable=0;" vertex="1" parent="Vrqj1Y5U4wgHQlJJCcb2-9">
                    <mxGeometry y="150" width="180" height="30" as="geometry"/>
                </mxCell>
                <mxCell id="Vrqj1Y5U4wgHQlJJCcb2-14" value="date_de_creation DATE" style="text;strokeColor=none;fillColor=none;align=left;verticalAlign=middle;spacingLeft=4;spacingRight=4;overflow=hidden;points=[[0,0.5],[1,0.5]];portConstraint=eastwest;rotatable=0;" vertex="1" parent="Vrqj1Y5U4wgHQlJJCcb2-9">
                    <mxGeometry y="180" width="180" height="30" as="geometry"/>
                </mxCell>
                <mxCell id="A8fHzLYMiSxlpu7F5eBw-2" style="edgeStyle=none;html=1;entryX=1;entryY=0.5;entryDx=0;entryDy=0;startArrow=ERmandOne;startFill=0;endArrow=ERoneToMany;endFill=0;" edge="1" parent="R9n2ZZHcBTKXqGS1CNbB-1" source="Vrqj1Y5U4wgHQlJJCcb2-20" target="Vrqj1Y5U4wgHQlJJCcb2-26">
                    <mxGeometry relative="1" as="geometry">
                        <Array as="points">
                            <mxPoint x="640" y="165"/>
                            <mxPoint x="590" y="200"/>
                        </Array>
                    </mxGeometry>
                </mxCell>
                <mxCell id="Vrqj1Y5U4wgHQlJJCcb2-20" value="categories" style="swimlane;fontStyle=0;childLayout=stackLayout;horizontal=1;startSize=30;horizontalStack=0;resizeParent=1;resizeParentMax=0;resizeLast=0;collapsible=1;marginBottom=0;" vertex="1" parent="R9n2ZZHcBTKXqGS1CNbB-1">
                    <mxGeometry x="560" y="80" width="140" height="90" as="geometry"/>
                </mxCell>
                <mxCell id="Vrqj1Y5U4wgHQlJJCcb2-21" value="id_categorie INT (pk)" style="text;strokeColor=#001DBC;fillColor=#0050ef;align=left;verticalAlign=middle;spacingLeft=4;spacingRight=4;overflow=hidden;points=[[0,0.5],[1,0.5]];portConstraint=eastwest;rotatable=0;fontColor=#ffffff;" vertex="1" parent="Vrqj1Y5U4wgHQlJJCcb2-20">
                    <mxGeometry y="30" width="140" height="30" as="geometry"/>
                </mxCell>
                <mxCell id="A8fHzLYMiSxlpu7F5eBw-0" value="libelle VARCHAR (50)" style="text;strokeColor=none;fillColor=none;align=left;verticalAlign=middle;spacingLeft=4;spacingRight=4;overflow=hidden;points=[[0,0.5],[1,0.5]];portConstraint=eastwest;rotatable=0;" vertex="1" parent="Vrqj1Y5U4wgHQlJJCcb2-20">
                    <mxGeometry y="60" width="140" height="30" as="geometry"/>
                </mxCell>
                <mxCell id="Vrqj1Y5U4wgHQlJJCcb2-30" style="edgeStyle=none;html=1;entryX=0;entryY=0.5;entryDx=0;entryDy=0;endArrow=ERoneToMany;endFill=0;startArrow=ERmandOne;startFill=0;exitX=1;exitY=0.25;exitDx=0;exitDy=0;" edge="1" parent="R9n2ZZHcBTKXqGS1CNbB-1" source="Vrqj1Y5U4wgHQlJJCcb2-9" target="Vrqj1Y5U4wgHQlJJCcb2-27">
                    <mxGeometry relative="1" as="geometry"/>
                </mxCell>
                <mxCell id="oDqJC_WjWV7SMIAnqd2H-0" value="recette_ingredients" style="swimlane;fontStyle=0;childLayout=stackLayout;horizontal=1;startSize=30;horizontalStack=0;resizeParent=1;resizeParentMax=0;resizeLast=0;collapsible=1;marginBottom=0;" vertex="1" parent="R9n2ZZHcBTKXqGS1CNbB-1">
                    <mxGeometry x="180" y="570" width="140" height="150" as="geometry"/>
                </mxCell>
                <mxCell id="G0b3Uhgn7AE88Tt9Z4ym-0" value="id INT (pk)" style="text;strokeColor=#001DBC;fillColor=#0050ef;align=left;verticalAlign=middle;spacingLeft=4;spacingRight=4;overflow=hidden;points=[[0,0.5],[1,0.5]];portConstraint=eastwest;rotatable=0;fontColor=#ffffff;" vertex="1" parent="oDqJC_WjWV7SMIAnqd2H-0">
                    <mxGeometry y="30" width="140" height="30" as="geometry"/>
                </mxCell>
                <mxCell id="oDqJC_WjWV7SMIAnqd2H-1" value="id_ingredients (fk)" style="text;strokeColor=#A50040;fillColor=#d80073;align=left;verticalAlign=middle;spacingLeft=4;spacingRight=4;overflow=hidden;points=[[0,0.5],[1,0.5]];portConstraint=eastwest;rotatable=0;fontColor=#ffffff;" vertex="1" parent="oDqJC_WjWV7SMIAnqd2H-0">
                    <mxGeometry y="60" width="140" height="30" as="geometry"/>
                </mxCell>
                <mxCell id="kLckxNhlvWsPYquvOSVA-0" value="id_recette (fk)" style="text;strokeColor=#A50040;fillColor=#d80073;align=left;verticalAlign=middle;spacingLeft=4;spacingRight=4;overflow=hidden;points=[[0,0.5],[1,0.5]];portConstraint=eastwest;rotatable=0;fontColor=#ffffff;" vertex="1" parent="oDqJC_WjWV7SMIAnqd2H-0">
                    <mxGeometry y="90" width="140" height="30" as="geometry"/>
                </mxCell>
                <mxCell id="oDqJC_WjWV7SMIAnqd2H-2" value="quantiter INT" style="text;strokeColor=none;fillColor=none;align=left;verticalAlign=middle;spacingLeft=4;spacingRight=4;overflow=hidden;points=[[0,0.5],[1,0.5]];portConstraint=eastwest;rotatable=0;" vertex="1" parent="oDqJC_WjWV7SMIAnqd2H-0">
                    <mxGeometry y="120" width="140" height="30" as="geometry"/>
                </mxCell>
                <mxCell id="kLckxNhlvWsPYquvOSVA-1" style="edgeStyle=none;html=1;startArrow=ERmandOne;startFill=0;endArrow=ERoneToMany;endFill=0;entryX=0;entryY=0.5;entryDx=0;entryDy=0;" edge="1" parent="R9n2ZZHcBTKXqGS1CNbB-1" source="Vrqj1Y5U4wgHQlJJCcb2-3" target="kLckxNhlvWsPYquvOSVA-0">
                    <mxGeometry relative="1" as="geometry">
                        <mxPoint x="620" y="265" as="targetPoint"/>
                        <Array as="points">
                            <mxPoint x="590" y="265"/>
                            <mxPoint x="550" y="460"/>
                            <mxPoint x="70" y="570"/>
                        </Array>
                    </mxGeometry>
                </mxCell>
                <mxCell id="G0b3Uhgn7AE88Tt9Z4ym-2" style="edgeStyle=none;html=1;entryX=1;entryY=0.5;entryDx=0;entryDy=0;startArrow=ERmandOne;startFill=0;endArrow=ERoneToMany;endFill=0;exitX=0;exitY=0.5;exitDx=0;exitDy=0;" edge="1" parent="R9n2ZZHcBTKXqGS1CNbB-1" source="Vrqj1Y5U4wgHQlJJCcb2-7" target="oDqJC_WjWV7SMIAnqd2H-0">
                    <mxGeometry relative="1" as="geometry"/>
                </mxCell>
            </root>
        </mxGraphModel>
    </diagram>
</mxfile>